<svg width="70" height="17" viewBox="0 0 70 17" fill="none" xmlns="http://www.w3.org/2000/svg">
<rect x="0.65" y="0.65" width="68.7" height="15.7" rx="3.35" fill="white" stroke="url(#paint0_linear_2_7)" stroke-width="1.3"/>
<path d="M7.9 14.424C7.292 14.424 6.704 14.348 6.136 14.196C5.576 14.052 5.108 13.832 4.732 13.536L5.476 12.192C5.748 12.416 6.092 12.592 6.508 12.72C6.932 12.856 7.348 12.924 7.756 12.924C8.42 12.924 8.9 12.776 9.196 12.48C9.5 12.184 9.652 11.744 9.652 11.16V10.188L9.772 8.568L9.748 6.936V5.544H11.524V10.92C11.524 12.12 11.212 13.004 10.588 13.572C9.964 14.14 9.068 14.424 7.9 14.424ZM7.612 11.688C7.012 11.688 6.468 11.56 5.98 11.304C5.5 11.04 5.112 10.676 4.816 10.212C4.528 9.74 4.384 9.192 4.384 8.568C4.384 7.936 4.528 7.388 4.816 6.924C5.112 6.452 5.5 6.088 5.98 5.832C6.468 5.576 7.012 5.448 7.612 5.448C8.156 5.448 8.636 5.56 9.052 5.784C9.468 6 9.792 6.34 10.024 6.804C10.256 7.26 10.372 7.848 10.372 8.568C10.372 9.28 10.256 9.868 10.024 10.332C9.792 10.788 9.468 11.128 9.052 11.352C8.636 11.576 8.156 11.688 7.612 11.688ZM7.984 10.152C8.312 10.152 8.604 10.088 8.86 9.96C9.116 9.824 9.316 9.636 9.46 9.396C9.604 9.156 9.676 8.88 9.676 8.568C9.676 8.248 9.604 7.972 9.46 7.74C9.316 7.5 9.116 7.316 8.86 7.188C8.604 7.052 8.312 6.984 7.984 6.984C7.656 6.984 7.364 7.052 7.108 7.188C6.852 7.316 6.648 7.5 6.496 7.74C6.352 7.972 6.28 8.248 6.28 8.568C6.28 8.88 6.352 9.156 6.496 9.396C6.648 9.636 6.852 9.824 7.108 9.96C7.364 10.088 7.656 10.152 7.984 10.152ZM13.2663 12V5.544H15.1383V12H13.2663ZM14.2023 4.644C13.8583 4.644 13.5783 4.544 13.3623 4.344C13.1463 4.144 13.0383 3.896 13.0383 3.6C13.0383 3.304 13.1463 3.056 13.3623 2.856C13.5783 2.656 13.8583 2.556 14.2023 2.556C14.5463 2.556 14.8263 2.652 15.0423 2.844C15.2583 3.028 15.3663 3.268 15.3663 3.564C15.3663 3.876 15.2583 4.136 15.0423 4.344C14.8343 4.544 14.5543 4.644 14.2023 4.644ZM19.5157 12.096C18.7557 12.096 18.1637 11.904 17.7397 11.52C17.3157 11.128 17.1037 10.548 17.1037 9.78V4.116H18.9757V9.756C18.9757 10.028 19.0477 10.24 19.1917 10.392C19.3357 10.536 19.5317 10.608 19.7797 10.608C20.0757 10.608 20.3277 10.528 20.5357 10.368L21.0397 11.688C20.8477 11.824 20.6157 11.928 20.3437 12C20.0797 12.064 19.8037 12.096 19.5157 12.096ZM16.1077 6.984V5.544H20.5837V6.984H16.1077ZM21.7334 9.372V7.872H25.1294V9.372H21.7334ZM26.6023 12V5.544H28.3903V7.368L28.1383 6.84C28.3303 6.384 28.6383 6.04 29.0623 5.808C29.4863 5.568 30.0023 5.448 30.6103 5.448V7.176C30.5303 7.168 30.4583 7.164 30.3943 7.164C30.3303 7.156 30.2623 7.152 30.1903 7.152C29.6783 7.152 29.2623 7.3 28.9423 7.596C28.6303 7.884 28.4743 8.336 28.4743 8.952V12H26.6023ZM34.8805 12.096C34.1445 12.096 33.4965 11.952 32.9365 11.664C32.3845 11.376 31.9565 10.984 31.6525 10.488C31.3485 9.984 31.1965 9.412 31.1965 8.772C31.1965 8.124 31.3445 7.552 31.6405 7.056C31.9445 6.552 32.3565 6.16 32.8765 5.88C33.3965 5.592 33.9845 5.448 34.6405 5.448C35.2725 5.448 35.8405 5.584 36.3445 5.856C36.8565 6.12 37.2605 6.504 37.5565 7.008C37.8525 7.504 38.0005 8.1 38.0005 8.796C38.0005 8.868 37.9965 8.952 37.9885 9.048C37.9805 9.136 37.9725 9.22 37.9645 9.3H32.7205V8.208H36.9805L36.2605 8.532C36.2605 8.196 36.1925 7.904 36.0565 7.656C35.9205 7.408 35.7325 7.216 35.4925 7.08C35.2525 6.936 34.9725 6.864 34.6525 6.864C34.3325 6.864 34.0485 6.936 33.8005 7.08C33.5605 7.216 33.3725 7.412 33.2365 7.668C33.1005 7.916 33.0325 8.212 33.0325 8.556V8.844C33.0325 9.196 33.1085 9.508 33.2605 9.78C33.4205 10.044 33.6405 10.248 33.9205 10.392C34.2085 10.528 34.5445 10.596 34.9285 10.596C35.2725 10.596 35.5725 10.544 35.8285 10.44C36.0925 10.336 36.3325 10.18 36.5485 9.972L37.5445 11.052C37.2485 11.388 36.8765 11.648 36.4285 11.832C35.9805 12.008 35.4645 12.096 34.8805 12.096ZM43.0628 12.096C42.5188 12.096 42.0428 11.976 41.6348 11.736C41.2268 11.496 40.9068 11.132 40.6748 10.644C40.4508 10.148 40.3388 9.524 40.3388 8.772C40.3388 8.012 40.4468 7.388 40.6628 6.9C40.8788 6.412 41.1908 6.048 41.5988 5.808C42.0068 5.568 42.4948 5.448 43.0628 5.448C43.6708 5.448 44.2148 5.588 44.6948 5.868C45.1828 6.14 45.5668 6.524 45.8468 7.02C46.1348 7.516 46.2788 8.1 46.2788 8.772C46.2788 9.452 46.1348 10.04 45.8468 10.536C45.5668 11.032 45.1828 11.416 44.6948 11.688C44.2148 11.96 43.6708 12.096 43.0628 12.096ZM39.2468 14.328V5.544H41.0348V6.864L40.9988 8.784L41.1188 10.692V14.328H39.2468ZM42.7388 10.56C43.0508 10.56 43.3268 10.488 43.5668 10.344C43.8148 10.2 44.0108 9.996 44.1548 9.732C44.3068 9.46 44.3828 9.14 44.3828 8.772C44.3828 8.396 44.3068 8.076 44.1548 7.812C44.0108 7.548 43.8148 7.344 43.5668 7.2C43.3268 7.056 43.0508 6.984 42.7388 6.984C42.4268 6.984 42.1468 7.056 41.8988 7.2C41.6508 7.344 41.4548 7.548 41.3108 7.812C41.1668 8.076 41.0948 8.396 41.0948 8.772C41.0948 9.14 41.1668 9.46 41.3108 9.732C41.4548 9.996 41.6508 10.2 41.8988 10.344C42.1468 10.488 42.4268 10.56 42.7388 10.56ZM50.604 12.096C49.916 12.096 49.304 11.952 48.768 11.664C48.24 11.376 47.82 10.984 47.508 10.488C47.204 9.984 47.052 9.412 47.052 8.772C47.052 8.124 47.204 7.552 47.508 7.056C47.82 6.552 48.24 6.16 48.768 5.88C49.304 5.592 49.916 5.448 50.604 5.448C51.284 5.448 51.892 5.592 52.428 5.88C52.964 6.16 53.384 6.548 53.688 7.044C53.992 7.54 54.144 8.116 54.144 8.772C54.144 9.412 53.992 9.984 53.688 10.488C53.384 10.984 52.964 11.376 52.428 11.664C51.892 11.952 51.284 12.096 50.604 12.096ZM50.604 10.56C50.916 10.56 51.196 10.488 51.444 10.344C51.692 10.2 51.888 9.996 52.032 9.732C52.176 9.46 52.248 9.14 52.248 8.772C52.248 8.396 52.176 8.076 52.032 7.812C51.888 7.548 51.692 7.344 51.444 7.2C51.196 7.056 50.916 6.984 50.604 6.984C50.292 6.984 50.012 7.056 49.764 7.2C49.516 7.344 49.316 7.548 49.164 7.812C49.02 8.076 48.948 8.396 48.948 8.772C48.948 9.14 49.02 9.46 49.164 9.732C49.316 9.996 49.516 10.2 49.764 10.344C50.012 10.488 50.292 10.56 50.604 10.56ZM55.3953 12V5.544H57.1833V7.368L56.9313 6.84C57.1233 6.384 57.4313 6.04 57.8553 5.808C58.2793 5.568 58.7953 5.448 59.4033 5.448V7.176C59.3233 7.168 59.2513 7.164 59.1873 7.164C59.1233 7.156 59.0553 7.152 58.9833 7.152C58.4713 7.152 58.0553 7.3 57.7353 7.596C57.4233 7.884 57.2673 8.336 57.2673 8.952V12H55.3953ZM63.379 12.096C62.619 12.096 62.027 11.904 61.603 11.52C61.179 11.128 60.967 10.548 60.967 9.78V4.116H62.839V9.756C62.839 10.028 62.911 10.24 63.055 10.392C63.199 10.536 63.395 10.608 63.643 10.608C63.939 10.608 64.191 10.528 64.399 10.368L64.903 11.688C64.711 11.824 64.479 11.928 64.207 12C63.943 12.064 63.667 12.096 63.379 12.096ZM59.971 6.984V5.544H64.447V6.984H59.971Z" fill="#F05133"/>
<defs>
<linearGradient id="paint0_linear_2_7" x1="-41" y1="-27" x2="109" y2="38" gradientUnits="userSpaceOnUse">
<stop stop-color="#D0D0D0"/>
<stop offset="0.514423" stop-color="white"/>
<stop offset="1" stop-color="#D0D0D0"/>
</linearGradient>
</defs>
</svg>
